<svg width="59" height="55" viewBox="0 0 59 55" fill="none" xmlns="http://www.w3.org/2000/svg">
<path d="M6.91406 12.5684V12.8906L7.14453 13.1055L9.56445 14.2871L18.4375 19.2285L22.0098 17.832L21.7793 16.9727V15.1465L22.3555 13.8574L23.2773 12.8906L24.6602 12.1387L26.5039 11.9238L27.7715 12.2461L28.5781 12.6758L29.7305 13.75L30.3066 14.8242L30.4219 16.9727L30.1914 17.832L33.6484 19.2285L45.2871 12.8906V12.4609L45.0566 12.2461L28.3477 2.90039L26.9648 2.36328H25.3516L24.084 2.79297L9.10352 11.1719L6.91406 12.5684Z" fill="url(#paint0_linear_229_627)"/>
<path d="M6.91406 12.5684V12.8906L7.14453 13.1055L9.56445 14.2871L18.4375 19.2285L22.0098 17.832L21.7793 16.9727V15.1465L22.3555 13.8574L23.2773 12.8906L24.6602 12.1387L26.5039 11.9238L27.7715 12.2461L28.5781 12.6758L29.7305 13.75L30.3066 14.8242L30.4219 16.9727L30.1914 17.832L33.6484 19.2285L45.2871 12.8906V12.4609L45.0566 12.2461L28.3477 2.90039L26.9648 2.36328H25.3516L24.084 2.79297L9.10352 11.1719L6.91406 12.5684Z" fill="#1982C4"/>
<path d="M6.45312 14.0723H5.99219L5.64648 14.7168V34.9121L5.99219 35.4492L17.0547 29.2188L17.4004 28.8965L19.2441 25.459L18.7832 25.2441L16.3633 24.9219L15.6719 24.5996L15.0957 24.0625L14.75 23.418V22.0215L14.9805 21.4844L15.7871 20.625L17.0547 19.9805L6.45312 14.0723Z" fill="url(#paint1_linear_229_627)"/>
<path d="M46.0938 13.9648L45.2871 14.2871L35.1465 19.873L36.5293 20.7324L37.3359 21.8066L37.4512 23.2031L37.2207 23.8477L36.4141 24.5996L34.6855 25.1367L32.957 25.2441V25.5664L37.1055 33.4082L37.2207 34.1602L36.9902 34.6973L36.5293 35.127L36.0684 35.3418H29.6152L28.5781 34.5898L26.9648 31.7969L26.7344 31.6895V46.7285L26.8496 46.8359H27.4258L28.5781 46.2988L36.875 41.5723L45.0566 37.168L45.8633 36.3086L46.3242 35.4492L46.5547 34.4824V14.9316L46.4395 14.3945L46.0938 13.9648Z" fill="url(#paint2_linear_229_627)"/>
<path d="M6.79883 36.416L6.68359 36.7383L7.25977 37.2754L24.3145 46.7285H25.3516V31.6895L23.5078 34.6973L22.4707 35.3418H16.0176L15.4414 35.0195L14.9805 34.2676V33.5156L16.1328 31.1523L6.79883 36.416Z" fill="url(#paint3_linear_229_627)"/>
<path d="M26.043 12.0312C28.4629 12.0312 30.4219 13.8574 30.4219 16.0059C30.4219 17.2949 29.7305 18.4766 28.6934 19.2285C31.9199 19.3359 34.916 20.7324 36.7598 22.2363C38.373 23.6328 37.5664 25.1367 35.4922 25.1367H33.3027L37.1055 33.623C37.5664 34.6973 36.7598 35.3418 35.4922 35.3418H30.1914C29.3848 35.3418 28.9238 35.0195 28.4629 34.2676L26.3887 30.6152L23.7383 34.2676C23.2773 35.0195 22.7012 35.3418 21.8945 35.3418H16.4785C15.2109 35.3418 14.5195 34.5898 14.9805 33.623L18.668 25.459L16.709 25.1367C14.9805 24.9219 14.2891 24.0625 14.75 22.7734C15.2109 21.5918 16.9394 20.5176 19.1289 19.7656C20.6269 19.3359 22.0098 19.1211 23.5078 19.1211C22.4707 18.3691 21.8945 17.1875 21.8945 16.0059C21.8945 13.8574 23.7383 12.0312 26.043 12.0312Z" fill="white"/>
<path d="M6.91406 12.5684V12.8906L7.14453 13.1055L9.56445 14.2871L18.4375 19.2285L22.0098 17.832L21.7793 16.9727V15.1465L22.3555 13.8574L23.2773 12.8906L24.6602 12.1387L26.5039 11.9238L27.7715 12.2461L28.5781 12.6758L29.7305 13.75L30.3066 14.8242L30.4219 16.9727L30.1914 17.832L33.6484 19.2285L45.2871 12.8906V12.4609L45.0566 12.2461L28.3477 2.90039L26.9648 2.36328H25.3516L24.084 2.79297L9.10352 11.1719L6.91406 12.5684Z" fill="url(#paint4_linear_229_627)"/>
<path d="M6.91406 12.5684V12.8906L7.14453 13.1055L9.56445 14.2871L18.4375 19.2285L22.0098 17.832L21.7793 16.9727V15.1465L22.3555 13.8574L23.2773 12.8906L24.6602 12.1387L26.5039 11.9238L27.7715 12.2461L28.5781 12.6758L29.7305 13.75L30.3066 14.8242L30.4219 16.9727L30.1914 17.832L33.6484 19.2285L45.2871 12.8906V12.4609L45.0566 12.2461L28.3477 2.90039L26.9648 2.36328H25.3516L24.084 2.79297L9.10352 11.1719L6.91406 12.5684Z" fill="#1982C4"/>
<path d="M6.45312 14.0723H5.99219L5.64648 14.7168V34.9121L5.99219 35.4492L17.0547 29.2188L17.4004 28.8965L19.2441 25.459L18.7832 25.2441L16.3633 24.9219L15.6719 24.5996L15.0957 24.0625L14.75 23.418V22.0215L14.9805 21.4844L15.7871 20.625L17.0547 19.9805L6.45312 14.0723Z" fill="url(#paint5_linear_229_627)"/>
<path d="M46.0938 13.9648L45.2871 14.2871L35.1465 19.873L36.5293 20.7324L37.3359 21.8066L37.4512 23.2031L37.2207 23.8477L36.4141 24.5996L34.6855 25.1367L32.957 25.2441V25.5664L37.1055 33.4082L37.2207 34.1602L36.9902 34.6973L36.5293 35.127L36.0684 35.3418H29.6152L28.5781 34.5898L26.9648 31.7969L26.7344 31.6895V46.7285L26.8496 46.8359H27.4258L28.5781 46.2988L36.875 41.5723L45.0566 37.168L45.8633 36.3086L46.3242 35.4492L46.5547 34.4824V14.9316L46.4395 14.3945L46.0938 13.9648Z" fill="url(#paint6_linear_229_627)"/>
<path d="M6.79883 36.416L6.68359 36.7383L7.25977 37.2754L24.3145 46.7285H25.3516V31.6895L23.5078 34.6973L22.4707 35.3418H16.0176L15.4414 35.0195L14.9805 34.2676V33.5156L16.1328 31.1523L6.79883 36.416Z" fill="url(#paint7_linear_229_627)"/>
<path d="M26.043 12.0312C28.4629 12.0312 30.4219 13.8574 30.4219 16.0059C30.4219 17.2949 29.7305 18.4766 28.6934 19.2285C31.9199 19.3359 34.916 20.7324 36.7598 22.2363C38.373 23.6328 37.5664 25.1367 35.4922 25.1367H33.3027L37.1055 33.623C37.5664 34.6973 36.7598 35.3418 35.4922 35.3418H30.1914C29.3848 35.3418 28.9238 35.0195 28.4629 34.2676L26.3887 30.6152L23.7383 34.2676C23.2773 35.0195 22.7012 35.3418 21.8945 35.3418H16.4785C15.2109 35.3418 14.5195 34.5898 14.9805 33.623L18.668 25.459L16.709 25.1367C14.9805 24.9219 14.2891 24.0625 14.75 22.7734C15.2109 21.5918 16.9394 20.5176 19.1289 19.7656C20.6269 19.3359 22.0098 19.1211 23.5078 19.1211C22.4707 18.3691 21.8945 17.1875 21.8945 16.0059C21.8945 13.8574 23.7383 12.0312 26.043 12.0312Z" fill="white"/>
<defs>
<linearGradient id="paint0_linear_229_627" x1="14.9805" y1="17.1875" x2="34.7035" y2="1.90715" gradientUnits="userSpaceOnUse">
<stop stop-color="#0077BE"/>
<stop offset="1" stop-color="#078ED3"/>
</linearGradient>
<linearGradient id="paint1_linear_229_627" x1="5.53125" y1="35.4492" x2="15.8146" y2="13.3868" gradientUnits="userSpaceOnUse">
<stop stop-color="#4F2B8C"/>
<stop offset="1" stop-color="#6A3A98"/>
</linearGradient>
<linearGradient id="paint2_linear_229_627" x1="39.4102" y1="14.502" x2="32.6588" y2="46.9303" gradientUnits="userSpaceOnUse">
<stop stop-color="#FFC522"/>
<stop offset="0.5" stop-color="#FFC522"/>
<stop offset="0.68" stop-color="#A3D320"/>
<stop offset="1" stop-color="#62BE12"/>
</linearGradient>
<linearGradient id="paint3_linear_229_627" x1="7.49023" y1="32.7637" x2="23.8414" y2="47.8646" gradientUnits="userSpaceOnUse">
<stop stop-color="#FF3E52"/>
<stop offset="1" stop-color="#FF534F"/>
</linearGradient>
<linearGradient id="paint4_linear_229_627" x1="14.9805" y1="17.1875" x2="34.7035" y2="1.90715" gradientUnits="userSpaceOnUse">
<stop stop-color="#0077BE"/>
<stop offset="1" stop-color="#078ED3"/>
</linearGradient>
<linearGradient id="paint5_linear_229_627" x1="5.53125" y1="35.4492" x2="15.8146" y2="13.3868" gradientUnits="userSpaceOnUse">
<stop stop-color="#4F2B8C"/>
<stop offset="1" stop-color="#6A3A98"/>
</linearGradient>
<linearGradient id="paint6_linear_229_627" x1="39.4102" y1="14.502" x2="32.6588" y2="46.9303" gradientUnits="userSpaceOnUse">
<stop stop-color="#FFC522"/>
<stop offset="0.5" stop-color="#FFC522"/>
<stop offset="0.68" stop-color="#A3D320"/>
<stop offset="1" stop-color="#62BE12"/>
</linearGradient>
<linearGradient id="paint7_linear_229_627" x1="7.49023" y1="32.7637" x2="23.8414" y2="47.8646" gradientUnits="userSpaceOnUse">
<stop stop-color="#FF3E52"/>
<stop offset="1" stop-color="#FF534F"/>
</linearGradient>
</defs>
</svg>
